# xmcd
#
# Track frame offsets:
#	150
#	11839
#	22663
#	34348
#	44593
#	55093
#	72562
#	84713
#	97307
#	106011
#	118975
#	131020
#	141940
#	152593
#	164332
#	176951
#	187055
#	198266
#	211758
#	224274
#	235378
#	245995
#	257422
#	268301
#
# Disc length: 3623 seconds
#
# Revision: 0
# Processed by: cddbd v1.5.2PL0 Copyright (c) Steve Scherf et al.
# Submitted via: audiograbber 1.83.01
#
DISCID=720e2518
DTITLE=Johnny Horton - The Early Years - CD1
DYEAR=1998
DGENRE=Country
TTITLE0=Smokey Joe's Barbecue
TTITLE1=Devilish Love Light
TTITLE2=Shotgun Boogie
TTITLE3=In My Home In Shelby County
TTITLE4=Coal Smoke, Valve Oil And Steam
TTITLE5=Bob Sullivan Stomp  [piano instrumental]
TTITLE6=Plaid And Calico
TTITLE7=Done Rovin'
TTITLE8=Candy Jones
TTITLE9=Mean, Mean Son Of A Gun
TTITLE10=Shadows On The Old Bayou
TTITLE11=Talk Gobbler Talk (Old Gobbler, The Hound Dog)
TTITLE12=Go And Wash Your Dirty Feet (Barefoot Boy Blues)
TTITLE13=Birds And Butterflies
TTITLE14=Happy Millionarie
TTITLE15=It's A Long Rocky Road
TTITLE16=On The Banks Of The Beautiful Nile
TTITLE17=Stompin' At The KWKH  [piano instrumental]
TTITLE18=Words
TTITLE19=Rhythm In My Baby's Walk
TTITLE20=Bawlin' Baby  [with Hillbilly Barton]
TTITLE21=Somebody's Rockin' My Broken Heart  [with Hillbilly Barton]
TTITLE22=Betty Lorraine (Betty Lou)
TTITLE23=Devilish Love Light  [excerpt]
EXTD=
EXTT0=
EXTT1=
EXTT2=
EXTT3=
EXTT4=
EXTT5=
EXTT6=
EXTT7=
EXTT8=
EXTT9=
EXTT10=
EXTT11=
EXTT12=
EXTT13=
EXTT14=
EXTT15=
EXTT16=
EXTT17=
EXTT18=
EXTT19=
EXTT20=
EXTT21=
EXTT22=
EXTT23=
PLAYORDER=
